<?xml version="1.0" encoding="utf-8"?>
<!-- Generator: Adobe Illustrator 25.4.1, SVG Export Plug-In . SVG Version: 6.00 Build 0)  -->
<svg version="1.1" id="Ñëîé_1" xmlns="http://www.w3.org/2000/svg" xmlns:xlink="http://www.w3.org/1999/xlink" x="0px" y="0px"
	 viewBox="0 0 505.3 414.5" style="enable-background:new 0 0 505.3 414.5;" xml:space="preserve">
<style type="text/css">
	.st0{fill:#003143;}
	.st1{fill:#FFFFFF;}
	.st2{fill:#40B8CB;}
	.st3{fill:#B8E8EC;}
	.st4{fill:none;}
	.st5{fill:#0B747F;}
	.st6{fill:#000FFF;}
</style>
<g>
	<path class="st0" d="M229.6,55.4C204,25.1,152.5-2,123.6,0.1c5.7,5.2,12.7,16.4,15.4,23.7c0,0,3.8-2.1,6.3-2
		c-2.5,1.4-5.1,7.3-5.1,7.3c1.2,3.9,2.9,7.4,3.6,11.4c0,0,7.5-4.8,19.4-8.8c-12.7,7.6-17.8,15.4-17.8,15.4c4,24,3.4,45.2-4.8,66.3
		c6.6-7.9,18.3-17.4,27.4-21.8c-14.9,12.7-34.4,38.4-40.9,55.9C92.6,156.4,36.5,175.5,0,193.5c34.4-1.8,64-1.5,88,0.8
		c2.4-1.2,6.4-2.8,8.1-3.3c-0.9,0.7-2.5,2.5-3,3.8c10.4,1.3,22.5,3.5,30.3,5.6c9.3,75.9,80.8,91.8,133.4,113.6
		c7.9,3.3,11.8,4.6,13.4,19.3c3,27.4,15.2,66.2,23,81.2c1.6-24,10.3-67.2,16.3-82.3c-4.5-1.9-8.2-3.7-10.3-6.7
		c10.8,2.7,18,8.9,36.4-5.2c11.3-8.7,36.2-27.3,55.7-36.8c-1.4-1.4-4.8-3.2-6.3-4c5.7-0.2,18.7,4.4,24.2,4
		c4.2-6.8,13.6-16.5,25.7-23.3c-55.2,1.5-139.2,41.1-160.4,38.3c16.8,8.6,68.2-5.3,85.2-6.4c-15.5,3.4-38.8,14.6-50.1,18.4
		c3,1.4,5,3.2,6.6,5.4c-61.1-8.8-135-69-100.9-111.1c13.6-9.6,62.4-22.6,134.5-12.4c-4.6-4.7-25.5-21.1-42.7-29
		c29.5-13.2,95.5-25.9,125.7-51.2c23.8-11.3,46.9-25,65.3-42c10.9-10.1,9.8-14.7-2.6-18.7C432.4,31.1,320.3,24.1,229.6,55.4z"/>
	<path class="st1" d="M330.6,61.4c5-1.6,21.8-1.7,27-0.3c0,0-5.8,4.1-10.9,6.3C342.3,67,334.2,63.5,330.6,61.4z"/>
	<path class="st2" d="M268.2,72.5c-0.1-2.3,0.7-5.3,1.6-7.8c-13,14.2-19.5,38-16.8,60.4c-7.7-15.9-5.7-42.7,0.1-54.3
		c-14.8,14.4-15.7,32.9-13.1,53.3c-7.9-14.3-8.3-36.2-2-47.5c-14.3,11.5-15.4,31.5-11.5,44.5c-6.4-11.4-9.2-24.1-4.8-37
		c-1.8,1.5-4.7,4.5-6.6,7.3c-26.9,13.5-45.7,27.8-57,40.3c12.9-21.8,22.3-30.1,34.2-44.1c-30.8,18.7-50.8,47-58.3,57.4
		c19-45.4,69.1-80.8,131-94.5c74.7-16.5,167.8-14.9,230.3,6.9c-40.6-5.7-82.7-4-115.1-2.2c3.4,1.5,8.6,4.2,11.3,6.4
		c-17.6-4.7-57.3-10.2-76.2-9.2c2.2,2.4,7,5.4,10.1,7.2C309.7,61.8,283.8,67.8,268.2,72.5z"/>
	<path class="st1" d="M18.9,189.7c26.3-3.3,50-3,72.1-1.7c6.9-3.6,19.5-8.2,27.7-10.7c-5.2,3.9-11.4,8-14,11.5
		c8.3,0.6,17.6,1.5,23.5,2c5.7-3.6,15.5-8.2,24.6-10.7c-13.2,10-21.6,23.7-16.9,43.5c3.9,16.1,19.2,34.3,47.8,47.6
		c-38.7-32.4,17.2-77.8,93.4-108.1c36.6-14.6,103.4-27.7,128.7-44.4c7.5-8.4-41.7-9.4-69.7-3.2c21.6-7.5,73.8-17.9,95.5-11.1
		c20.4-8.4,52.1-30.5,64.2-40.1c-49.8,5.3-113,15.9-204.3,55.5c-18.5,3.1-45.4,8.5-84.7,24C149.5,148.4,64.7,170.9,18.9,189.7z"/>
	<path class="st3" d="M290.5,146.2c-128.3,38.6-156.8,89.7-107.3,124.3c-28.7-26,1.6-60.5,48.2-86c27.9-15.3,62-26.8,94.1-36.9
		c23.9-7.5,120.3-31.7,63.5-35.9C415.2,119.7,360.8,125.1,290.5,146.2z"/>
	<path class="st3" d="M335.8,115.4c30.1-9.1,74.8-17.8,95.8-10.9c21-8.9,59.9-35.3,64-40.2c-6.4,0.4-18,2.8-23.3,4.4
		c-6.7,5.9-39,25.3-48.2,28.2C387,96.5,353.6,108.3,335.8,115.4z"/>
	<path class="st2" d="M133.4,4c32.1,1.2,76,35.1,92.1,53.7c-5.7,2.6-16.7,7.1-25.7,12.9C210.2,48.7,167.5,12.6,133.4,4z"/>
	<path class="st2" d="M284.9,313.3c-34.7-9.7-121.1-52.9-77.6-107.3C178.9,254.7,249,298.8,284.9,313.3z"/>
</g>
<path class="st3" d="M182.3,310.5"/>
<path class="st3" d="M187.5,343.8"/>
<path class="st3" d="M122,231.4L122,231.4z"/>
<rect x="620.5" y="61.4" class="st4" width="2" height="0"/>
<rect x="380.5" y="325.4" class="st4" width="2.6" height="0.5"/>
<g>
	<g>
		
			<rect x="38.4" y="227.8" transform="matrix(0.9044 -0.4266 0.4266 0.9044 -86.6353 132.6007)" class="st5" width="428.5" height="63.8"/>
	</g>
	<g>
		<g>
			<path class="st6" d="M98.4,346.1c-0.3,1.3-0.9,2.4-1.6,3.3c-2,2.6-5.3,5.5-9.7,8.5c-4,2.7-7.8,4.9-11.4,6.5
				c-2.8,1.3-4.5,1-5.2-0.6c-0.7-1.5-2.1-7.5-4.2-17.9c-2.1-10.4-3.2-16.6-3.3-18.6c-0.1-2.9,1.1-4.8,3.7-6c1.4-0.7,2.4-0.4,3,0.7
				c0.2,0.5,0.4,1.6,0.6,3.4c0.7,10.7,2.5,20.5,5.4,29.4c2.6-1.3,5.3-2.7,8-4.5c1.7-1.1,3.4-2.4,5.1-3.7l5-3.9
				c0.6-0.4,1.2-0.8,1.6-1c1.5-0.7,2.5-0.4,3,0.6C98.8,343.5,98.8,344.7,98.4,346.1z"/>
			<path class="st6" d="M141.4,319.1c-1.1,5.5-3.4,10.5-6.9,15.2c-3.6,4.8-7.7,8.3-12.4,10.4c-4.4,2-8.7,2.5-12.7,1.3
				c-4.2-1.2-7.3-4-9.3-8.4c-2.2-4.9-2.7-10.4-1.5-16.4c1.1-5.4,3.4-10.5,6.9-15.3c3.6-4.8,7.8-8.3,12.5-10.4
				c4.4-2,8.6-2.5,12.7-1.3c4.3,1.2,7.4,4,9.4,8.4C142.2,307.6,142.7,313.1,141.4,319.1z M126,303.3c-2.8-1.1-5.7-1-8.7,0.4
				c-4.8,2.2-8.2,6.2-10.2,12.1c-1.9,5.8-1.8,11,0.4,15.9c1.4,3.1,3.5,5.2,6.3,6.3c2.8,1.1,5.7,1,8.8-0.5c4.8-2.2,8.2-6.2,10.1-12.1
				c2-5.8,1.8-11.1-0.4-15.9C130.8,306.5,128.8,304.4,126,303.3z"/>
			<path class="st6" d="M183.9,313.1c-0.8,1.4-1.8,2.4-2.9,2.9c-1,0.5-2.1,0-3.3-1.3c-0.5-0.5-1.2-1.7-2.2-3.4
				c-5.4,4.1-12,8.8-20,14.2c-0.6,3.4-1.4,5.4-2.5,5.9c-1,0.5-2.1,0.4-3.2-0.3c-0.9-0.6-1.6-1.4-2.1-2.5c-0.5-1-0.4-2.5,0.2-4.4
				l1.4-4.4c1.5-5.1,2.9-11.2,4-18.4l2.6-18.7c0.3-2.4,1.5-4.1,3.6-5.1c1.2-0.5,2.2-0.3,3.1,0.6c0.2,0.3,0.8,1.2,1.7,3
				c5.8,10.1,11.3,17.9,16.4,23.5l2.1,2.2c0.9,1,1.5,1.7,1.8,2.4C185,310.2,184.8,311.5,183.9,313.1z M161.4,290
				c-0.6,3.6-2,11.9-4,25c5-3.4,9.5-6.9,13.5-10.6C168.7,301,165.5,296.2,161.4,290z"/>
			<path class="st6" d="M216.9,257.5c0.1,13.1,1.5,24.4,4.2,34.1c0.5,1.6,0.7,2.6,0.7,3.2c-0.1,1.8-1.5,3.3-4.1,4.5
				c-1.4,0.7-2.4,0.6-2.7-0.2c-0.1-0.1-0.1-0.2-0.1-0.4L191.4,283c1.1,8.7,2.4,15.7,4,21l1.3,3.9c0.2,1.2-0.3,2.4-1.4,3.6
				c-0.8,0.9-1.6,1.5-2.4,1.9c-1.4,0.7-2.4,0.3-3-1c-0.2-0.5-0.4-1.4-0.7-2.7l-0.5-2.8c-2.7-12.9-4.5-22.5-5.6-28.8
				c-0.4-2.1-0.5-3.6-0.3-4.4c0.2-1.3,1-2.6,2.4-3.7c0.7-0.5,1.3-0.9,1.9-1.1c1.1-0.5,2-0.5,2.7-0.1l23.1,16.1c0-1-0.5-5.1-1.5-12.3
				l-1.3-7.3c-1.1-7,0.1-11.4,3.7-13c1.4-0.6,2.2-0.4,2.7,0.7C216.7,253.6,216.8,255.2,216.9,257.5z"/>
			<path class="st6" d="M281.3,250.2c-0.6,6.4-3.2,12.8-7.6,18.9c-4.4,6.2-9.5,10.6-15.4,13.3c-4.2,1.9-6.8,1.6-10-1.4
				c-1.3-1.2-2.3-2.6-3-4.1c-0.6-1.2-0.9-2.4-0.9-3.5c-0.1-1.5,0.4-2.5,1.4-3c1-0.5,2.2-0.2,3.3,0.9c1.6,1.5,2.9,2.4,3.9,2.7
				c2.1,0.6,4.8,0.2,8.1-1.3c3-1.4,5.5-3.3,7.7-5.6c2.3-2.6,3.7-5.4,4.2-8.4c0.3-1.4,0.3-2.3,0-2.8c-0.1-0.2-0.4-0.3-0.9-0.3
				c-2.3,0-6.2,1.1-11.7,3.2c-2.7,1.1-6.7,2.7-12,4.7c-2.5,0.9-4.2,0.4-5.1-1.4c-1.2-2.5-0.4-6.6,2.2-12.3
				c4.8-10.3,11.5-17.4,20.4-21.5c2.1-1,3.5-0.7,4.1,0.7c1.3,2.8,2,4.9,2.3,6.5c0.1,0.9-0.3,2.1-1.2,3.5c-0.9,1.4-1.8,2.2-2.7,2.6
				c-1.3,0.6-2.3,0.1-3-1.4l-0.7-1.5l-0.7,0.3c-2.8,1.1-5.4,3-7.9,5.9c-2.2,2.5-3.8,5.4-4.8,8.6c0.3-0.2,1.4-0.7,3.4-1.6l0.8-0.4
				c2.2-1,5.9-2.4,11.2-4.3c6.1-2.2,9.9-3.3,11.3-3.4c1.1,0,2,0.6,2.6,1.9C281.3,247,281.5,248.5,281.3,250.2z"/>
			<path class="st6" d="M314.4,210.1c0.1,3.5,0.5,8,1.2,13.6c2.1,0.1,3.5,0.8,4,2c0.4,0.9,0.2,1.9-0.6,2.8c-0.6,0.7-1.4,1.3-2.5,1.8
				c1,5.8,1.9,10.1,2.8,12.9c0.3,0.9,0.8,2.2,1.3,4.1c0.2,1.2,0,2.4-0.8,3.6c-0.7,1.1-1.6,1.9-2.8,2.5c-1.5,0.7-2.5,0.4-3.1-0.8
				c-0.5-1.2-1-2.7-1.2-4.6c-0.1-1.1-0.4-2.6-0.8-4.7c-0.1-0.8-0.8-3.9-1.9-9.1c-5.7,3.6-10.6,7.4-14.9,11.4c1,4.6,2.1,8.6,3.4,12.2
				c0.6,1.3,0.8,2.3,0.7,3c0,0.9-0.5,1.8-1.4,2.8c-0.7,0.9-1.6,1.6-2.5,2c-1.4,0.7-2.4,0.3-3-1c-0.2-0.4-0.4-1.3-0.7-2.6
				c-0.6-3.2-1.8-8.5-3.7-16.1c-1.7-6.8-2.8-12.2-3.5-16c-0.2-1.4-0.3-2.5-0.2-3.1c0.1-1.1,0.6-2.1,1.4-3.1c0.8-0.9,1.7-1.6,2.8-2.1
				c1.5-0.7,2.6-0.4,3.1,0.8c0.3,0.6,0.5,1.6,0.6,3.1c0.3,3.9,0.7,7.8,1.4,11.6c4.9-4.2,9.8-7.6,15-10.3c-0.7-3.8-1.3-7.3-1.8-10.5
				c-0.4-3.4,1-5.8,4.4-7.4c1.4-0.7,2.4-0.4,2.9,0.7C314.3,209.6,314.4,209.9,314.4,210.1z"/>
			<path class="st6" d="M363.3,231.5c-0.8,1.4-1.8,2.4-2.9,2.9c-1,0.5-2.1,0-3.3-1.3c-0.5-0.5-1.2-1.7-2.2-3.4
				c-5.4,4.1-12,8.8-20,14.2c-0.6,3.4-1.4,5.4-2.5,5.9c-1,0.5-2.1,0.4-3.2-0.3c-0.9-0.6-1.6-1.4-2.1-2.5c-0.5-1-0.4-2.5,0.2-4.4
				l1.4-4.4c1.5-5.1,2.9-11.2,4-18.4l2.6-18.7c0.3-2.4,1.5-4.1,3.6-5.1c1.2-0.5,2.2-0.3,3.1,0.6c0.2,0.3,0.8,1.2,1.7,3
				c5.8,10.1,11.3,17.9,16.4,23.5l2.1,2.2c0.9,1,1.5,1.7,1.8,2.4C364.4,228.7,364.2,230,363.3,231.5z M340.8,208.5
				c-0.6,3.6-2,11.9-4,25c5-3.4,9.5-6.9,13.5-10.6C348.1,219.4,344.9,214.7,340.8,208.5z"/>
			<path class="st6" d="M393.9,199c-2.9,4.5-6.9,8.8-12.1,13c3.2,0.4,6,0.5,8.3,0.3c0.8-0.2,2.1-0.3,3.8-0.5c1.1,0,1.7,0.3,2,1
				c0.4,0.8,0.3,1.7-0.3,2.8c-0.6,1.1-1.3,1.8-2.1,2.2c-1.9,0.9-4.7,1.5-8.5,2c-3.3,0.4-6.2,0.5-8.7,0.4c0.5,1,1,2.5,1.5,4.6
				c0.1,1-0.2,2-1,3.1c-0.7,0.9-1.6,1.7-2.6,2.1c-1.6,0.7-2.7,0.4-3.3-0.9c-0.3-0.7-1-3.3-1.9-7.7c-0.7-3.2-1.7-8.8-3.1-16.6
				c-1.3-0.2-2.2-1-2.9-2.4c-0.5-1.2-0.4-2.8,0.5-4.9c4.1-10.1,9.5-16.6,16.1-19.6c3.2-1.5,6.4-1.8,9.5-1.2c3.3,0.7,5.7,2.7,7.2,5.9
				C398.4,187.4,397.7,192.9,393.9,199z M385.5,185.3c-1.8-0.2-3.6,0.1-5.4,1c-3.2,1.5-6.2,4.8-8.9,10.1c0.5,4.3,1.3,8.6,2.2,12.9
				c8.2-4.1,13.3-8.3,15.3-12.4c1.7-3.7,2.2-6.6,1.2-8.7C389.1,186.5,387.7,185.6,385.5,185.3z"/>
			<path class="st6" d="M432.3,159.2c0,0.8-0.5,2.2-1.7,4.1c-0.9,1.4-3.5,6.4-8.1,14.7c-3,5.4-5.3,9.7-7,13
				c6.8,2.2,13.3,3.3,19.8,3.1c1.2,0.2,1.9,0.5,2.2,1.1c0.4,0.8-0.1,2-1.4,3.5c-1.2,1.3-2.3,2.2-3.2,2.6c-0.8,0.4-4.5,0.7-11.1,1.1
				c-3.3,0.2-6.3-0.1-8.9-0.9c0.8,2.4,1.2,3.9,1.3,4.3c0.4,2.8-0.8,4.9-3.6,6.2c-1.4,0.7-2.5,0.3-3.1-0.9c-0.2-0.4-0.4-1.3-0.7-2.8
				c-1.9-9.2-3.9-19.9-6.2-32.1c-0.3-1.4-0.4-2.5-0.3-3.3c0.2-2.4,1.6-4.2,4.4-5.4c1.5-0.7,2.5-0.5,3,0.7c0.3,0.7,0.5,1.9,0.6,3.6
				c0,0.9,0,2.2,0.1,3.9c0.2,2.9,0.6,6.6,1.3,11.2c6.1-11.2,11-19.6,14.6-25.4c1.1-1.7,2.3-2.8,3.7-3.5c2.1-1,3.5-0.9,4.1,0.4
				C432.2,158.8,432.3,159.1,432.3,159.2z"/>
		</g>
		<g>
			<path class="st1" d="M98.4,346.1c-0.3,1.3-0.9,2.4-1.6,3.3c-2,2.6-5.3,5.5-9.7,8.5c-4,2.7-7.8,4.9-11.4,6.5
				c-2.8,1.3-4.5,1-5.2-0.6c-0.7-1.5-2.1-7.5-4.2-17.9c-2.1-10.4-3.2-16.6-3.3-18.6c-0.1-2.9,1.1-4.8,3.7-6c1.4-0.7,2.4-0.4,3,0.7
				c0.2,0.5,0.4,1.6,0.6,3.4c0.7,10.7,2.5,20.5,5.4,29.4c2.6-1.3,5.3-2.7,8-4.5c1.7-1.1,3.4-2.4,5.1-3.7l5-3.9
				c0.6-0.4,1.2-0.8,1.6-1c1.5-0.7,2.5-0.4,3,0.6C98.8,343.5,98.8,344.7,98.4,346.1z"/>
			<path class="st1" d="M141.4,319.1c-1.1,5.5-3.4,10.5-6.9,15.2c-3.6,4.8-7.7,8.3-12.4,10.4c-4.4,2-8.7,2.5-12.7,1.3
				c-4.2-1.2-7.3-4-9.3-8.4c-2.2-4.9-2.7-10.4-1.5-16.4c1.1-5.4,3.4-10.5,6.9-15.3c3.6-4.8,7.8-8.3,12.5-10.4
				c4.4-2,8.6-2.5,12.7-1.3c4.3,1.2,7.4,4,9.4,8.4C142.2,307.6,142.7,313.1,141.4,319.1z M126,303.3c-2.8-1.1-5.7-1-8.7,0.4
				c-4.8,2.2-8.2,6.2-10.2,12.1c-1.9,5.8-1.8,11,0.4,15.9c1.4,3.1,3.5,5.2,6.3,6.3c2.8,1.1,5.7,1,8.8-0.5c4.8-2.2,8.2-6.2,10.1-12.1
				c2-5.8,1.8-11.1-0.4-15.9C130.8,306.5,128.8,304.4,126,303.3z"/>
			<path class="st1" d="M183.9,313.1c-0.8,1.4-1.8,2.4-2.9,2.9c-1,0.5-2.1,0-3.3-1.3c-0.5-0.5-1.2-1.7-2.2-3.4
				c-5.4,4.1-12,8.8-20,14.2c-0.6,3.4-1.4,5.4-2.5,5.9c-1,0.5-2.1,0.4-3.2-0.3c-0.9-0.6-1.6-1.4-2.1-2.5c-0.5-1-0.4-2.5,0.2-4.4
				l1.4-4.4c1.5-5.1,2.9-11.2,4-18.4l2.6-18.7c0.3-2.4,1.5-4.1,3.6-5.1c1.2-0.5,2.2-0.3,3.1,0.6c0.2,0.3,0.8,1.2,1.7,3
				c5.8,10.1,11.3,17.9,16.4,23.5l2.1,2.2c0.9,1,1.5,1.7,1.8,2.4C185,310.2,184.8,311.5,183.9,313.1z M161.4,290
				c-0.6,3.6-2,11.9-4,25c5-3.4,9.5-6.9,13.5-10.6C168.7,301,165.5,296.2,161.4,290z"/>
			<path class="st1" d="M216.9,257.5c0.1,13.1,1.5,24.4,4.2,34.1c0.5,1.6,0.7,2.6,0.7,3.2c-0.1,1.8-1.5,3.3-4.1,4.5
				c-1.4,0.7-2.4,0.6-2.7-0.2c-0.1-0.1-0.1-0.2-0.1-0.4L191.4,283c1.1,8.7,2.4,15.7,4,21l1.3,3.9c0.2,1.2-0.3,2.4-1.4,3.6
				c-0.8,0.9-1.6,1.5-2.4,1.9c-1.4,0.7-2.4,0.3-3-1c-0.2-0.5-0.4-1.4-0.7-2.7l-0.5-2.8c-2.7-12.9-4.5-22.5-5.6-28.8
				c-0.4-2.1-0.5-3.6-0.3-4.4c0.2-1.3,1-2.6,2.4-3.7c0.7-0.5,1.3-0.9,1.9-1.1c1.1-0.5,2-0.5,2.7-0.1l23.1,16.1c0-1-0.5-5.1-1.5-12.3
				l-1.3-7.3c-1.1-7,0.1-11.4,3.7-13c1.4-0.6,2.2-0.4,2.7,0.7C216.7,253.6,216.8,255.2,216.9,257.5z"/>
			<path class="st1" d="M281.3,250.2c-0.6,6.4-3.2,12.8-7.6,18.9c-4.4,6.2-9.5,10.6-15.4,13.3c-4.2,1.9-6.8,1.6-10-1.4
				c-1.3-1.2-2.3-2.6-3-4.1c-0.6-1.2-0.9-2.4-0.9-3.5c-0.1-1.5,0.4-2.5,1.4-3c1-0.5,2.2-0.2,3.3,0.9c1.6,1.5,2.9,2.4,3.9,2.7
				c2.1,0.6,4.8,0.2,8.1-1.3c3-1.4,5.5-3.3,7.7-5.6c2.3-2.6,3.7-5.4,4.2-8.4c0.3-1.4,0.3-2.3,0-2.8c-0.1-0.2-0.4-0.3-0.9-0.3
				c-2.3,0-6.2,1.1-11.7,3.2c-2.7,1.1-6.7,2.7-12,4.7c-2.5,0.9-4.2,0.4-5.1-1.4c-1.2-2.5-0.4-6.6,2.2-12.3
				c4.8-10.3,11.5-17.4,20.4-21.5c2.1-1,3.5-0.7,4.1,0.7c1.3,2.8,2,4.9,2.3,6.5c0.1,0.9-0.3,2.1-1.2,3.5c-0.9,1.4-1.8,2.2-2.7,2.6
				c-1.3,0.6-2.3,0.1-3-1.4l-0.7-1.5l-0.7,0.3c-2.8,1.1-5.4,3-7.9,5.9c-2.2,2.5-3.8,5.4-4.8,8.6c0.3-0.2,1.4-0.7,3.4-1.6l0.8-0.4
				c2.2-1,5.9-2.4,11.2-4.3c6.1-2.2,9.9-3.3,11.3-3.4c1.1,0,2,0.6,2.6,1.9C281.3,247,281.5,248.5,281.3,250.2z"/>
			<path class="st1" d="M314.4,210.1c0.1,3.5,0.5,8,1.2,13.6c2.1,0.1,3.5,0.8,4,2c0.4,0.9,0.2,1.9-0.6,2.8c-0.6,0.7-1.4,1.3-2.5,1.8
				c1,5.8,1.9,10.1,2.8,12.9c0.3,0.9,0.8,2.2,1.3,4.1c0.2,1.2,0,2.4-0.8,3.6c-0.7,1.1-1.6,1.9-2.8,2.5c-1.5,0.7-2.5,0.4-3.1-0.8
				c-0.5-1.2-1-2.7-1.2-4.6c-0.1-1.1-0.4-2.6-0.8-4.7c-0.1-0.8-0.8-3.9-1.9-9.1c-5.7,3.6-10.6,7.4-14.9,11.4c1,4.6,2.1,8.6,3.4,12.2
				c0.6,1.3,0.8,2.3,0.7,3c0,0.9-0.5,1.8-1.4,2.8c-0.7,0.9-1.6,1.6-2.5,2c-1.4,0.7-2.4,0.3-3-1c-0.2-0.4-0.4-1.3-0.7-2.6
				c-0.6-3.2-1.8-8.5-3.7-16.1c-1.7-6.8-2.8-12.2-3.5-16c-0.2-1.4-0.3-2.5-0.2-3.1c0.1-1.1,0.6-2.1,1.4-3.1c0.8-0.9,1.7-1.6,2.8-2.1
				c1.5-0.7,2.6-0.4,3.1,0.8c0.3,0.6,0.5,1.6,0.6,3.1c0.3,3.9,0.7,7.8,1.4,11.6c4.9-4.2,9.8-7.6,15-10.3c-0.7-3.8-1.3-7.3-1.8-10.5
				c-0.4-3.4,1-5.8,4.4-7.4c1.4-0.7,2.4-0.4,2.9,0.7C314.3,209.6,314.4,209.9,314.4,210.1z"/>
			<path class="st1" d="M363.3,231.5c-0.8,1.4-1.8,2.4-2.9,2.9c-1,0.5-2.1,0-3.3-1.3c-0.5-0.5-1.2-1.7-2.2-3.4
				c-5.4,4.1-12,8.8-20,14.2c-0.6,3.4-1.4,5.4-2.5,5.9c-1,0.5-2.1,0.4-3.2-0.3c-0.9-0.6-1.6-1.4-2.1-2.5c-0.5-1-0.4-2.5,0.2-4.4
				l1.4-4.4c1.5-5.1,2.9-11.2,4-18.4l2.6-18.7c0.3-2.4,1.5-4.1,3.6-5.1c1.2-0.5,2.2-0.3,3.1,0.6c0.2,0.3,0.8,1.2,1.7,3
				c5.8,10.1,11.3,17.9,16.4,23.5l2.1,2.2c0.9,1,1.5,1.7,1.8,2.4C364.4,228.7,364.2,230,363.3,231.5z M340.8,208.5
				c-0.6,3.6-2,11.9-4,25c5-3.4,9.5-6.9,13.5-10.6C348.1,219.4,344.9,214.7,340.8,208.5z"/>
			<path class="st1" d="M393.9,199c-2.9,4.5-6.9,8.8-12.1,13c3.2,0.4,6,0.5,8.3,0.3c0.8-0.2,2.1-0.3,3.8-0.5c1.1,0,1.7,0.3,2,1
				c0.4,0.8,0.3,1.7-0.3,2.8c-0.6,1.1-1.3,1.8-2.1,2.2c-1.9,0.9-4.7,1.5-8.5,2c-3.3,0.4-6.2,0.5-8.7,0.4c0.5,1,1,2.5,1.5,4.6
				c0.1,1-0.2,2-1,3.1c-0.7,0.9-1.6,1.7-2.6,2.1c-1.6,0.7-2.7,0.4-3.3-0.9c-0.3-0.7-1-3.3-1.9-7.7c-0.7-3.2-1.7-8.8-3.1-16.6
				c-1.3-0.2-2.2-1-2.9-2.4c-0.5-1.2-0.4-2.8,0.5-4.9c4.1-10.1,9.5-16.6,16.1-19.6c3.2-1.5,6.4-1.8,9.5-1.2c3.3,0.7,5.7,2.7,7.2,5.9
				C398.4,187.4,397.7,192.9,393.9,199z M385.5,185.3c-1.8-0.2-3.6,0.1-5.4,1c-3.2,1.5-6.2,4.8-8.9,10.1c0.5,4.3,1.3,8.6,2.2,12.9
				c8.2-4.1,13.3-8.3,15.3-12.4c1.7-3.7,2.2-6.6,1.2-8.7C389.1,186.5,387.7,185.6,385.5,185.3z"/>
			<path class="st1" d="M432.3,159.2c0,0.8-0.5,2.2-1.7,4.1c-0.9,1.4-3.5,6.4-8.1,14.7c-3,5.4-5.3,9.7-7,13
				c6.8,2.2,13.3,3.3,19.8,3.1c1.2,0.2,1.9,0.5,2.2,1.1c0.4,0.8-0.1,2-1.4,3.5c-1.2,1.3-2.3,2.2-3.2,2.6c-0.8,0.4-4.5,0.7-11.1,1.1
				c-3.3,0.2-6.3-0.1-8.9-0.9c0.8,2.4,1.2,3.9,1.3,4.3c0.4,2.8-0.8,4.9-3.6,6.2c-1.4,0.7-2.5,0.3-3.1-0.9c-0.2-0.4-0.4-1.3-0.7-2.8
				c-1.9-9.2-3.9-19.9-6.2-32.1c-0.3-1.4-0.4-2.5-0.3-3.3c0.2-2.4,1.6-4.2,4.4-5.4c1.5-0.7,2.5-0.5,3,0.7c0.3,0.7,0.5,1.9,0.6,3.6
				c0,0.9,0,2.2,0.1,3.9c0.2,2.9,0.6,6.6,1.3,11.2c6.1-11.2,11-19.6,14.6-25.4c1.1-1.7,2.3-2.8,3.7-3.5c2.1-1,3.5-0.9,4.1,0.4
				C432.2,158.8,432.3,159.1,432.3,159.2z"/>
		</g>
	</g>
</g>
</svg>
